<?xml version="1.0" encoding="iso-8859-1"?>
<!-- Generator: Adobe Illustrator 19.0.0, SVG Export Plug-In . SVG Version: 6.00 Build 0)  -->
<svg version="1.1" id="Capa_1" xmlns="http://www.w3.org/2000/svg" xmlns:xlink="http://www.w3.org/1999/xlink" x="0px" y="0px"
	 viewBox="0 0 512 512" style="enable-background:new 0 0 512 512;" xml:space="preserve">
<g>
	<g>
		<path d="M442,106c-5.52,0-10,4.48-10,10s4.48,10,10,10c5.52,0,10-4.48,10-10S447.52,106,442,106z"/>
	</g>
</g>
<g>
	<g>
		<path d="M256,346c-5.52,0-10,4.48-10,10c0,5.52,4.48,10,10,10c5.52,0,10-4.48,10-10C266,350.48,261.52,346,256,346z"/>
	</g>
</g>
<g>
	<g>
		<path d="M396,246c-5.523,0-10,4.477-10,10c0,49.626-40.374,90-90,90c-5.523,0-10,4.477-10,10s4.477,10,10,10
			c60.654,0,110-49.346,110-110C406,250.477,401.523,246,396,246z"/>
	</g>
</g>
<g>
	<g>
		<path d="M510.944,151.528L485.775,101.2C474.925,79.488,453.106,66,428.83,66c-19.785,0-38.692,9.384-50.669,25.125
			l-28.248,31.787c-7.529-10.706-18.573-18.648-31.296-22.277l-50.53-14.44C229.405,75.142,191.584,45.348,164.32,4.453
			c-2.444-3.666-7-5.3-11.218-4.024C148.885,1.706,146,5.594,146,10v53.89c0,25.045,3.751,49.743,11.161,73.574
			c-7.766,1.93-15.597,3.545-23.391,4.805C118.5,144.745,102.943,146,87.53,146H10c-3.635,0-6.984,1.973-8.746,5.153
			c-1.762,3.18-1.66,7.065,0.267,10.147l59.88,95.811c25.586,40.931,69.65,66.616,117.922,68.732L83.141,434.72
			c-14.82,15.153-9.668,40.513,9.908,48.663l52.953,26.153c0.235,0.116,0.474,0.223,0.717,0.32
			c15.315,6.12,32.773-1.31,38.954-16.608L222.625,406H296c84.561,0,156-68.691,156-150v-60c0-16.542,13.458-30,30-30h20
			c3.466,0,6.685-1.794,8.507-4.743C512.329,158.309,512.494,154.627,510.944,151.528z M166,39.801
			c27.558,32.281,61.653,55.641,96.592,65.625l50.535,14.441c9.855,2.812,18.161,9.587,22.925,18.644l-26.581,29.911l-46.696-28.017
			c-20.226-12.135-44.298-16.962-68.185-13.096c-7.506,1.217-12.297,2.744-18.192,4.653C169.497,109.92,166,87.067,166,63.89V39.801
			z M482,146c-27.57,0-50,22.43-50,50v60c0,70.467-62.28,130-136,130h-80c-28.491,0-54.101,15.829-66.834,41.308l-2.11,4.22
			c-2.47,4.94-0.467,10.946,4.473,13.416s10.947,0.466,13.416-4.473c1.164-1.55,8.746-24.079,34.945-32.074l-32.667,77.133
			c-0.027,0.063-0.053,0.125-0.078,0.189c-1.984,4.965-7.577,7.54-12.697,5.681c-56.29-27.79-52.898-26.157-53.574-26.426
			c-6.682-2.672-8.44-11.266-3.351-16.354c0.345-0.346,21.232-24.014,108.482-122.772c36.682-1.63,71.003-16.714,97.067-42.778
			c3.905-3.905,3.905-10.237,0-14.143c-3.905-3.906-10.237-3.905-14.143,0C244.416,313.443,191.575,304.994,185.69,306
			c-43.921,0-84.045-22.239-107.33-59.49l-6.394-10.231l7.219,2.817c45.784,17.864,102.954,11.499,142.362-14.775
			c4.595-3.064,5.836-9.272,2.773-13.868c-3.064-4.595-9.272-5.837-13.868-2.773c-34.614,23.079-84.445,28.216-123.998,12.784
			l-32.233-12.575L28.043,166H87.53c16.482,0,33.116-1.342,49.437-3.988c33.624-5.436,47.75-12.842,60.822-14.96
			c18.998-3.075,38.4,0.725,54.698,10.503l78.368,47.019c4.734,2.843,10.878,1.308,13.72-3.428
			c2.842-4.735,1.307-10.878-3.428-13.72l-14.224-8.534c70.257-79.077,66.502-74.788,66.978-75.421
			C402.105,92.531,415.163,86,428.83,86c16.649,0,31.614,9.25,39.056,24.143L485.818,146H482z"/>
	</g>
</g>
<g>
</g>
<g>
</g>
<g>
</g>
<g>
</g>
<g>
</g>
<g>
</g>
<g>
</g>
<g>
</g>
<g>
</g>
<g>
</g>
<g>
</g>
<g>
</g>
<g>
</g>
<g>
</g>
<g>
</g>
</svg>
