<?xml version="1.0" encoding="UTF-8" standalone="no"?><!DOCTYPE svg PUBLIC "-//W3C//DTD SVG 1.1//EN" "http://www.w3.org/Graphics/SVG/1.1/DTD/svg11.dtd"><svg width="100%" height="100%" viewBox="0 0 475 200" version="1.1" xmlns="http://www.w3.org/2000/svg" xmlns:xlink="http://www.w3.org/1999/xlink" xml:space="preserve" xmlns:serif="http://www.serif.com/" style="fill-rule:evenodd;clip-rule:evenodd;stroke-linejoin:round;stroke-miterlimit:2;"><path d="M475,20.713c0,-11.432 -9.281,-20.713 -20.713,-20.713l-433.574,0c-11.432,0 -20.713,9.281 -20.713,20.713l0,158.574c0,11.432 9.281,20.713 20.713,20.713l433.574,0c11.432,0 20.713,-9.281 20.713,-20.713l0,-158.574Z" style="fill:#fff;"/><g id="Logo"><clipPath id="_clip1"><rect x="29.237" y="13.493" width="173.013" height="173.013"/></clipPath><g clip-path="url(#_clip1)"><g><g><path d="M178.596,49.313c-1.865,-0 -3.379,1.513 -3.379,3.379c0,1.865 1.514,3.379 3.379,3.379c1.865,-0 3.379,-1.514 3.379,-3.379c0,-1.866 -1.514,-3.379 -3.379,-3.379Z" style="fill-rule:nonzero;"/></g></g><g><g><path d="M115.744,130.412c-1.866,0 -3.379,1.514 -3.379,3.38c-0,1.865 1.513,3.379 3.379,3.379c1.865,-0 3.379,-1.514 3.379,-3.379c-0,-1.866 -1.514,-3.38 -3.379,-3.38Z" style="fill-rule:nonzero;"/></g></g><g><g><path d="M163.052,96.621c-1.866,-0 -3.379,1.513 -3.379,3.379c-0,16.769 -13.643,30.412 -30.413,30.412c-1.866,0 -3.379,1.513 -3.379,3.38c0,1.866 1.513,3.379 3.379,3.379c20.496,-0 37.171,-16.675 37.171,-37.171c0,-1.866 -1.513,-3.379 -3.379,-3.379Z" style="fill-rule:nonzero;"/></g></g><g><g><path d="M201.894,64.697l-8.506,-17.006c-3.666,-7.337 -11.039,-11.895 -19.242,-11.895c-6.686,-0 -13.075,3.171 -17.122,8.49l-9.545,10.741c-2.545,-3.617 -6.277,-6.301 -10.576,-7.527l-17.075,-4.88c-13.071,-3.735 -25.851,-13.803 -35.064,-27.622c-0.826,-1.239 -2.366,-1.791 -3.791,-1.36c-1.425,0.432 -2.4,1.746 -2.4,3.235l-0,18.21c-0,8.463 1.268,16.809 3.771,24.862c-2.624,0.652 -5.27,1.198 -7.904,1.623c-5.16,0.837 -10.417,1.261 -15.625,1.261l-26.199,0c-1.228,0 -2.36,0.667 -2.955,1.741c-0.595,1.075 -0.561,2.388 0.09,3.429l20.235,32.376c8.646,13.832 23.535,22.511 39.847,23.226l-32.501,36.791c-5.008,5.121 -3.267,13.69 3.348,16.444l17.894,8.838c0.079,0.039 0.16,0.075 0.242,0.108c5.175,2.068 11.074,-0.443 13.163,-5.612l12.487,-29.483l24.794,0c28.575,0 52.715,-23.211 52.715,-50.687l0,-20.275c0,-5.59 4.548,-10.137 10.138,-10.137l6.758,-0c1.171,-0 2.259,-0.607 2.875,-1.603c0.616,-0.996 0.671,-2.241 0.148,-3.288Zm-116.563,-37.754c9.313,10.908 20.834,18.802 32.64,22.176l17.077,4.879c3.33,0.951 6.137,3.24 7.747,6.301l-8.983,10.107l-15.779,-9.467c-6.835,-4.101 -14.969,-5.732 -23.041,-4.426c-2.536,0.411 -4.155,0.927 -6.147,1.573c-2.332,-7.449 -3.514,-15.171 -3.514,-23.003l0,-8.14Zm106.782,35.886c-9.316,0 -16.896,7.58 -16.896,16.896l0,20.275c0,23.812 -21.045,43.929 -45.957,43.929l-27.033,0c-9.627,0 -18.281,5.349 -22.584,13.959l-0.713,1.426c-0.835,1.669 -0.158,3.699 1.511,4.533c1.67,0.835 3.699,0.158 4.534,-1.511c0.393,-0.524 2.955,-8.137 11.808,-10.839l-11.038,26.065c-0.01,0.021 -0.018,0.042 -0.027,0.064c-0.67,1.678 -2.56,2.548 -4.29,1.919c-19.022,-9.39 -17.875,-8.838 -18.104,-8.929c-2.258,-0.903 -2.852,-3.807 -1.132,-5.527c0.116,-0.116 7.174,-8.114 36.658,-41.486c12.395,-0.551 23.993,-5.648 32.8,-14.456c1.32,-1.319 1.32,-3.459 0,-4.779c-1.319,-1.32 -3.459,-1.319 -4.779,0c-15.042,15.043 -32.897,12.188 -34.886,12.528c-14.842,-0 -28.4,-7.515 -36.269,-20.103l-2.16,-3.457l2.439,0.952c15.471,6.036 34.79,3.886 48.107,-4.993c1.552,-1.035 1.972,-3.133 0.937,-4.686c-1.036,-1.553 -3.134,-1.972 -4.687,-0.937c-11.696,7.799 -28.535,9.535 -41.901,4.32l-10.892,-4.249l-8.846,-14.155l20.102,-0c5.57,-0 11.19,-0.454 16.706,-1.348c11.362,-1.837 16.135,-4.34 20.552,-5.055c6.42,-1.039 12.976,0.245 18.484,3.549l26.481,15.888c1.6,0.961 3.676,0.442 4.637,-1.158c0.96,-1.6 0.441,-3.676 -1.159,-4.636l-4.806,-2.884c23.741,-26.721 22.472,-25.272 22.633,-25.486c2.772,-3.697 7.185,-5.904 11.803,-5.904c5.626,0 10.683,3.126 13.198,8.159l6.059,12.116l-1.29,0Z" style="fill-rule:nonzero;"/></g></g></g><text x="199.883px" y="124.252px" style="font-family:'Sofia-Regular', 'Sofia';font-size:54.242px;">cryptogeon</text></g></svg>