<?xml version="1.0" encoding="UTF-8" standalone="no"?><!DOCTYPE svg PUBLIC "-//W3C//DTD SVG 1.1//EN" "http://www.w3.org/Graphics/SVG/1.1/DTD/svg11.dtd"><svg width="100%" height="100%" viewBox="0 0 450 200" version="1.1" xmlns="http://www.w3.org/2000/svg" xmlns:xlink="http://www.w3.org/1999/xlink" xml:space="preserve" xmlns:serif="http://www.serif.com/" style="fill-rule:evenodd;clip-rule:evenodd;stroke-linejoin:round;stroke-miterlimit:2;"><g id="Logo"><clipPath id="_clip1"><rect x="6.336" y="3.225" width="193.55" height="193.55"/></clipPath><g clip-path="url(#_clip1)"><g><g><path d="M173.425,43.296c-2.087,-0 -3.78,1.693 -3.78,3.78c-0,2.087 1.693,3.78 3.78,3.78c2.087,0 3.78,-1.693 3.78,-3.78c0,-2.087 -1.693,-3.78 -3.78,-3.78Z" style="fill-rule:nonzero;"/></g></g><g><g><path d="M103.112,134.023c-2.087,-0 -3.781,1.693 -3.781,3.78c0,2.087 1.694,3.78 3.781,3.78c2.086,0 3.78,-1.693 3.78,-3.78c-0,-2.087 -1.694,-3.78 -3.78,-3.78Z" style="fill-rule:nonzero;"/></g></g><g><g><path d="M156.036,96.22c-2.088,-0 -3.781,1.692 -3.781,3.78c0,18.76 -15.262,34.023 -34.022,34.023c-2.088,-0 -3.781,1.692 -3.781,3.78c0,2.088 1.693,3.78 3.781,3.78c22.929,0 41.583,-18.654 41.583,-41.583c-0,-2.088 -1.693,-3.78 -3.78,-3.78Z" style="fill-rule:nonzero;"/></g></g><g><g><path d="M199.488,60.507l-9.515,-19.026c-4.102,-8.207 -12.35,-13.306 -21.527,-13.306c-7.479,-0 -14.626,3.547 -19.154,9.498l-10.679,12.016c-2.846,-4.047 -7.021,-7.049 -11.83,-8.421l-19.102,-5.459c-14.623,-4.178 -28.92,-15.441 -39.227,-30.901c-0.924,-1.386 -2.646,-2.003 -4.241,-1.521c-1.594,0.483 -2.684,1.953 -2.684,3.618l-0,20.372c-0,9.468 1.417,18.804 4.219,27.813c-2.936,0.73 -5.896,1.34 -8.843,1.816c-5.772,0.936 -11.653,1.411 -17.48,1.411l-29.308,-0c-1.374,-0 -2.64,0.746 -3.307,1.948c-0.666,1.202 -0.627,2.671 0.101,3.836l22.637,36.219c9.672,15.473 26.329,25.183 44.578,25.983l-36.36,41.158c-5.602,5.728 -3.655,15.315 3.746,18.396l20.017,9.887c0.089,0.044 0.179,0.084 0.271,0.121c5.79,2.313 12.389,-0.496 14.726,-6.279l13.969,-32.982l27.738,0c31.966,0 58.972,-25.967 58.972,-56.704l0,-22.682c0,-6.253 5.088,-11.341 11.341,-11.341l7.56,0c1.311,0 2.528,-0.678 3.216,-1.793c0.689,-1.114 0.752,-2.506 0.166,-3.677Zm-130.399,-42.236c10.418,12.203 23.307,21.034 36.515,24.808l19.103,5.459c3.726,1.063 6.866,3.624 8.666,7.048l-10.048,11.307l-17.652,-10.591c-7.646,-4.588 -16.746,-6.412 -25.776,-4.951c-2.838,0.46 -4.649,1.038 -6.877,1.759c-2.609,-8.332 -3.931,-16.971 -3.931,-25.733l0,-9.106Zm119.457,40.146c-10.422,-0 -18.901,8.479 -18.901,18.901l-0,22.682c-0,26.639 -23.544,49.144 -51.412,49.144l-30.243,-0c-10.77,-0 -20.451,5.983 -25.265,15.615l-0.797,1.596c-0.934,1.867 -0.177,4.137 1.691,5.071c1.867,0.934 4.138,0.176 5.071,-1.691c0.44,-0.586 3.306,-9.102 13.21,-12.125l-12.349,29.159c-0.01,0.024 -0.02,0.047 -0.029,0.071c-0.75,1.877 -2.864,2.851 -4.8,2.148c-21.279,-10.506 -19.997,-9.888 -20.252,-9.99c-2.526,-1.01 -3.191,-4.259 -1.267,-6.182c0.13,-0.131 8.026,-9.078 41.009,-46.411c13.867,-0.617 26.841,-6.319 36.694,-16.172c1.476,-1.476 1.476,-3.87 0,-5.346c-1.476,-1.477 -3.87,-1.476 -5.346,-0c-16.827,16.828 -36.803,13.634 -39.028,14.014c-16.603,0 -31.771,-8.407 -40.573,-22.488l-2.417,-3.868l2.729,1.065c17.307,6.753 38.919,4.347 53.816,-5.586c1.737,-1.158 2.207,-3.505 1.049,-5.242c-1.159,-1.737 -3.505,-2.207 -5.243,-1.048c-13.085,8.724 -31.922,10.666 -46.875,4.832l-12.185,-4.753l-9.896,-15.836l22.488,0c6.231,0 12.519,-0.507 18.689,-1.507c12.711,-2.055 18.051,-4.855 22.992,-5.655c7.182,-1.163 14.516,0.274 20.678,3.97l29.625,17.775c1.789,1.074 4.112,0.494 5.186,-1.296c1.075,-1.79 0.495,-4.113 -1.295,-5.187l-5.378,-3.226c26.56,-29.893 25.14,-28.272 25.32,-28.511c3.101,-4.136 8.038,-6.605 13.204,-6.605c6.294,0 11.951,3.497 14.764,9.127l6.779,13.555l-1.443,-0Z" style="fill-rule:nonzero;"/></g></g></g><text x="197.239px" y="127.131px" style="font-family:'Sofia-Regular', 'Sofia';font-size:60.681px;">cryptgeon</text></g></svg>